%TF.GenerationSoftware,KiCad,Pcbnew,9.0.0*%
%TF.CreationDate,2025-03-31T16:50:09-07:00*%
%TF.ProjectId,proto-for-mfg,70726f74-6f2d-4666-9f72-2d6d66672e6b,rev?*%
%TF.SameCoordinates,Original*%
%TF.FileFunction,Drillmap*%
%TF.FilePolarity,Positive*%
%FSLAX45Y45*%
G04 Gerber Fmt 4.5, Leading zero omitted, Abs format (unit mm)*
G04 Created by KiCad (PCBNEW 9.0.0) date 2025-03-31 16:50:09*
%MOMM*%
%LPD*%
G01*
G04 APERTURE LIST*
%ADD10C,0.050000*%
%ADD11C,0.200000*%
G04 APERTURE END LIST*
D10*
X21392500Y-10045000D02*
X21392500Y-14985000D01*
X2256986Y-3798195D02*
X21392500Y-3802500D01*
X2256986Y-14985695D02*
X2256986Y-3798195D01*
X21392500Y-14985000D02*
X2256986Y-14985695D01*
X21392500Y-3802500D02*
X21392500Y-10045000D01*
D11*
X2515262Y-15299678D02*
X2515262Y-15099678D01*
X2515262Y-15099678D02*
X2562881Y-15099678D01*
X2562881Y-15099678D02*
X2591453Y-15109202D01*
X2591453Y-15109202D02*
X2610500Y-15128250D01*
X2610500Y-15128250D02*
X2620024Y-15147297D01*
X2620024Y-15147297D02*
X2629548Y-15185393D01*
X2629548Y-15185393D02*
X2629548Y-15213964D01*
X2629548Y-15213964D02*
X2620024Y-15252059D01*
X2620024Y-15252059D02*
X2610500Y-15271107D01*
X2610500Y-15271107D02*
X2591453Y-15290155D01*
X2591453Y-15290155D02*
X2562881Y-15299678D01*
X2562881Y-15299678D02*
X2515262Y-15299678D01*
X2715262Y-15299678D02*
X2715262Y-15166345D01*
X2715262Y-15204440D02*
X2724786Y-15185393D01*
X2724786Y-15185393D02*
X2734310Y-15175869D01*
X2734310Y-15175869D02*
X2753358Y-15166345D01*
X2753358Y-15166345D02*
X2772405Y-15166345D01*
X2839072Y-15299678D02*
X2839072Y-15166345D01*
X2839072Y-15099678D02*
X2829548Y-15109202D01*
X2829548Y-15109202D02*
X2839072Y-15118726D01*
X2839072Y-15118726D02*
X2848596Y-15109202D01*
X2848596Y-15109202D02*
X2839072Y-15099678D01*
X2839072Y-15099678D02*
X2839072Y-15118726D01*
X2962881Y-15299678D02*
X2943834Y-15290155D01*
X2943834Y-15290155D02*
X2934310Y-15271107D01*
X2934310Y-15271107D02*
X2934310Y-15099678D01*
X3067643Y-15299678D02*
X3048596Y-15290155D01*
X3048596Y-15290155D02*
X3039072Y-15271107D01*
X3039072Y-15271107D02*
X3039072Y-15099678D01*
X3296215Y-15299678D02*
X3296215Y-15099678D01*
X3296215Y-15099678D02*
X3362881Y-15242536D01*
X3362881Y-15242536D02*
X3429548Y-15099678D01*
X3429548Y-15099678D02*
X3429548Y-15299678D01*
X3610500Y-15299678D02*
X3610500Y-15194917D01*
X3610500Y-15194917D02*
X3600977Y-15175869D01*
X3600977Y-15175869D02*
X3581929Y-15166345D01*
X3581929Y-15166345D02*
X3543834Y-15166345D01*
X3543834Y-15166345D02*
X3524786Y-15175869D01*
X3610500Y-15290155D02*
X3591453Y-15299678D01*
X3591453Y-15299678D02*
X3543834Y-15299678D01*
X3543834Y-15299678D02*
X3524786Y-15290155D01*
X3524786Y-15290155D02*
X3515262Y-15271107D01*
X3515262Y-15271107D02*
X3515262Y-15252059D01*
X3515262Y-15252059D02*
X3524786Y-15233012D01*
X3524786Y-15233012D02*
X3543834Y-15223488D01*
X3543834Y-15223488D02*
X3591453Y-15223488D01*
X3591453Y-15223488D02*
X3610500Y-15213964D01*
X3705738Y-15166345D02*
X3705738Y-15366345D01*
X3705738Y-15175869D02*
X3724786Y-15166345D01*
X3724786Y-15166345D02*
X3762881Y-15166345D01*
X3762881Y-15166345D02*
X3781929Y-15175869D01*
X3781929Y-15175869D02*
X3791453Y-15185393D01*
X3791453Y-15185393D02*
X3800977Y-15204440D01*
X3800977Y-15204440D02*
X3800977Y-15261583D01*
X3800977Y-15261583D02*
X3791453Y-15280631D01*
X3791453Y-15280631D02*
X3781929Y-15290155D01*
X3781929Y-15290155D02*
X3762881Y-15299678D01*
X3762881Y-15299678D02*
X3724786Y-15299678D01*
X3724786Y-15299678D02*
X3705738Y-15290155D01*
X3886691Y-15280631D02*
X3896215Y-15290155D01*
X3896215Y-15290155D02*
X3886691Y-15299678D01*
X3886691Y-15299678D02*
X3877167Y-15290155D01*
X3877167Y-15290155D02*
X3886691Y-15280631D01*
X3886691Y-15280631D02*
X3886691Y-15299678D01*
X3886691Y-15175869D02*
X3896215Y-15185393D01*
X3896215Y-15185393D02*
X3886691Y-15194917D01*
X3886691Y-15194917D02*
X3877167Y-15185393D01*
X3877167Y-15185393D02*
X3886691Y-15175869D01*
X3886691Y-15175869D02*
X3886691Y-15194917D01*
M02*
