%TF.GenerationSoftware,KiCad,Pcbnew,9.0.0*%
%TF.CreationDate,2025-03-31T16:50:09-07:00*%
%TF.ProjectId,proto-for-mfg,70726f74-6f2d-4666-9f72-2d6d66672e6b,rev?*%
%TF.SameCoordinates,Original*%
%TF.FileFunction,Drillmap*%
%TF.FilePolarity,Positive*%
%FSLAX45Y45*%
G04 Gerber Fmt 4.5, Leading zero omitted, Abs format (unit mm)*
G04 Created by KiCad (PCBNEW 9.0.0) date 2025-03-31 16:50:09*
%MOMM*%
%LPD*%
G01*
G04 APERTURE LIST*
%ADD10C,0.050000*%
%ADD11C,0.200000*%
%ADD12C,0.100000*%
G04 APERTURE END LIST*
D10*
X21392500Y-10045000D02*
X21392500Y-14985000D01*
X2256986Y-3798195D02*
X21392500Y-3802500D01*
X2256986Y-14985695D02*
X2256986Y-3798195D01*
X21392500Y-14985000D02*
X2256986Y-14985695D01*
X21392500Y-3802500D02*
X21392500Y-10045000D01*
D11*
D12*
X3164485Y-11090695D02*
X3194485Y-11120695D01*
X3194485Y-11090695D02*
X3164485Y-11120695D01*
X3774485Y-12710695D02*
X3804485Y-12740695D01*
X3804485Y-12710695D02*
X3774485Y-12740695D01*
X3904485Y-7635695D02*
X3934485Y-7665695D01*
X3934485Y-7635695D02*
X3904485Y-7665695D01*
X3941985Y-7773195D02*
X3971985Y-7803195D01*
X3971985Y-7773195D02*
X3941985Y-7803195D01*
X4029485Y-7488195D02*
X4059485Y-7518195D01*
X4059485Y-7488195D02*
X4029485Y-7518195D01*
X4031985Y-10095695D02*
X4061985Y-10125695D01*
X4061985Y-10095695D02*
X4031985Y-10125695D01*
X4031985Y-10880695D02*
X4061985Y-10910695D01*
X4061985Y-10880695D02*
X4031985Y-10910695D01*
X4031985Y-11530695D02*
X4061985Y-11560695D01*
X4061985Y-11530695D02*
X4031985Y-11560695D01*
X4319486Y-9193195D02*
X4349486Y-9223195D01*
X4349486Y-9193195D02*
X4319486Y-9223195D01*
X4359486Y-13355695D02*
X4389486Y-13385695D01*
X4389486Y-13355695D02*
X4359486Y-13385695D01*
X4404486Y-5133195D02*
X4434486Y-5163195D01*
X4434486Y-5133195D02*
X4404486Y-5163195D01*
X4476986Y-9055695D02*
X4506986Y-9085695D01*
X4506986Y-9055695D02*
X4476986Y-9085695D01*
X4484486Y-5273195D02*
X4514486Y-5303195D01*
X4514486Y-5273195D02*
X4484486Y-5303195D01*
X4526986Y-5348195D02*
X4556986Y-5378195D01*
X4556986Y-5348195D02*
X4526986Y-5378195D01*
X4556986Y-10815695D02*
X4586986Y-10845695D01*
X4586986Y-10815695D02*
X4556986Y-10845695D01*
X4736986Y-5778195D02*
X4766986Y-5808195D01*
X4766986Y-5778195D02*
X4736986Y-5808195D01*
X4754486Y-13403195D02*
X4784486Y-13433195D01*
X4784486Y-13403195D02*
X4754486Y-13433195D01*
X4754486Y-14085695D02*
X4784486Y-14115695D01*
X4784486Y-14085695D02*
X4754486Y-14115695D01*
X4774486Y-4688195D02*
X4804486Y-4718195D01*
X4804486Y-4688195D02*
X4774486Y-4718195D01*
X4814486Y-12598195D02*
X4844486Y-12628195D01*
X4844486Y-12598195D02*
X4814486Y-12628195D01*
X4871986Y-5735695D02*
X4901986Y-5765695D01*
X4901986Y-5735695D02*
X4871986Y-5765695D01*
X4909486Y-11438195D02*
X4939486Y-11468195D01*
X4939486Y-11438195D02*
X4909486Y-11468195D01*
X4926986Y-4803195D02*
X4956986Y-4833195D01*
X4956986Y-4803195D02*
X4926986Y-4833195D01*
X4949486Y-5650695D02*
X4979486Y-5680695D01*
X4979486Y-5650695D02*
X4949486Y-5680695D01*
X5064486Y-4773195D02*
X5094486Y-4803195D01*
X5094486Y-4773195D02*
X5064486Y-4803195D01*
X5294486Y-5198195D02*
X5324486Y-5228195D01*
X5324486Y-5198195D02*
X5294486Y-5228195D01*
X5354486Y-5283195D02*
X5384486Y-5313195D01*
X5384486Y-5283195D02*
X5354486Y-5313195D01*
X5364486Y-7268195D02*
X5394486Y-7298195D01*
X5394486Y-7268195D02*
X5364486Y-7298195D01*
X5369486Y-5418195D02*
X5399486Y-5448195D01*
X5399486Y-5418195D02*
X5369486Y-5448195D01*
X5506986Y-7230695D02*
X5536986Y-7260695D01*
X5536986Y-7230695D02*
X5506986Y-7260695D01*
X5581986Y-7148195D02*
X5611985Y-7178195D01*
X5611985Y-7148195D02*
X5581986Y-7178195D01*
X7461985Y-11510695D02*
X7491985Y-11540695D01*
X7491985Y-11510695D02*
X7461985Y-11540695D01*
X7537971Y-6341887D02*
X7567971Y-6371887D01*
X7567971Y-6341887D02*
X7537971Y-6371887D01*
X7584485Y-6480695D02*
X7614485Y-6510695D01*
X7614485Y-6480695D02*
X7584485Y-6510695D01*
X7619485Y-10755695D02*
X7649485Y-10785695D01*
X7649485Y-10755695D02*
X7619485Y-10785695D01*
X7619485Y-11623195D02*
X7649485Y-11653195D01*
X7649485Y-11623195D02*
X7619485Y-11653195D01*
X7666985Y-6200695D02*
X7696985Y-6230695D01*
X7696985Y-6200695D02*
X7666985Y-6230695D01*
X7754485Y-10725695D02*
X7784485Y-10755695D01*
X7784485Y-10725695D02*
X7754485Y-10755695D01*
X7831985Y-10640695D02*
X7861985Y-10670695D01*
X7861985Y-10640695D02*
X7831985Y-10670695D01*
X8234485Y-4915695D02*
X8264485Y-4945695D01*
X8264485Y-4915695D02*
X8234485Y-4945695D01*
X8246985Y-8368195D02*
X8276985Y-8398195D01*
X8276985Y-8368195D02*
X8246985Y-8398195D01*
X8297989Y-4778190D02*
X8327989Y-4808190D01*
X8327989Y-4778190D02*
X8297989Y-4808190D01*
X8304879Y-8575828D02*
X8334879Y-8605828D01*
X8334879Y-8575828D02*
X8304879Y-8605828D01*
X8416986Y-8660695D02*
X8446986Y-8690695D01*
X8446986Y-8660695D02*
X8416986Y-8690695D01*
X8494486Y-4758195D02*
X8524486Y-4788195D01*
X8524486Y-4758195D02*
X8494486Y-4788195D01*
X9659486Y-4173195D02*
X9689486Y-4203195D01*
X9689486Y-4173195D02*
X9659486Y-4203195D01*
X9798786Y-4133930D02*
X9828786Y-4163930D01*
X9828786Y-4133930D02*
X9798786Y-4163930D01*
X9949486Y-4255695D02*
X9979486Y-4285695D01*
X9979486Y-4255695D02*
X9949486Y-4285695D01*
X10269486Y-12848195D02*
X10299486Y-12878195D01*
X10299486Y-12848195D02*
X10269486Y-12878195D01*
X10344486Y-12990695D02*
X10374486Y-13020695D01*
X10374486Y-12990695D02*
X10344486Y-13020695D01*
X10406986Y-9918195D02*
X10436986Y-9948195D01*
X10436986Y-9918195D02*
X10406986Y-9948195D01*
X10481501Y-10137822D02*
X10511501Y-10167822D01*
X10511501Y-10137822D02*
X10481501Y-10167822D01*
X10601986Y-10215695D02*
X10631986Y-10245695D01*
X10631986Y-10215695D02*
X10601986Y-10245695D01*
X10759486Y-14383195D02*
X10789486Y-14413195D01*
X10789486Y-14383195D02*
X10759486Y-14413195D01*
X10914486Y-14503195D02*
X10944486Y-14533195D01*
X10944486Y-14503195D02*
X10914486Y-14533195D01*
X11054486Y-14660695D02*
X11084486Y-14690695D01*
X11084486Y-14660695D02*
X11054486Y-14690695D01*
X11204485Y-13515695D02*
X11234485Y-13545695D01*
X11234485Y-13515695D02*
X11204485Y-13545695D01*
X11234485Y-14463195D02*
X11264485Y-14493195D01*
X11264485Y-14463195D02*
X11234485Y-14493195D01*
X11281985Y-11928195D02*
X11311985Y-11958195D01*
X11311985Y-11928195D02*
X11281985Y-11958195D01*
X11369485Y-11718195D02*
X11399485Y-11748195D01*
X11399485Y-11718195D02*
X11369485Y-11748195D01*
X11554485Y-11365695D02*
X11584485Y-11395695D01*
X11584485Y-11365695D02*
X11554485Y-11395695D01*
X11729485Y-5643195D02*
X11759485Y-5673195D01*
X11759485Y-5643195D02*
X11729485Y-5673195D01*
X11739485Y-11495695D02*
X11769485Y-11525695D01*
X11769485Y-11495695D02*
X11739485Y-11525695D01*
X11871985Y-5645695D02*
X11901985Y-5675695D01*
X11901985Y-5645695D02*
X11871985Y-5675695D01*
X11881985Y-11565695D02*
X11911985Y-11595695D01*
X11911985Y-11565695D02*
X11881985Y-11595695D01*
X11944485Y-5553195D02*
X11974485Y-5583195D01*
X11974485Y-5553195D02*
X11944485Y-5583195D01*
X12284485Y-12170695D02*
X12314485Y-12200695D01*
X12314485Y-12170695D02*
X12284485Y-12200695D01*
X12434485Y-12110695D02*
X12464485Y-12140695D01*
X12464485Y-12110695D02*
X12434485Y-12140695D01*
X12611985Y-12200695D02*
X12641985Y-12230695D01*
X12641985Y-12200695D02*
X12611985Y-12230695D01*
X12711985Y-10358195D02*
X12741985Y-10388195D01*
X12741985Y-10358195D02*
X12711985Y-10388195D01*
X12901985Y-10308195D02*
X12931985Y-10338195D01*
X12931985Y-10308195D02*
X12901985Y-10338195D01*
X12981985Y-10185695D02*
X13011985Y-10215695D01*
X13011985Y-10185695D02*
X12981985Y-10215695D01*
X13106985Y-13115695D02*
X13136985Y-13145695D01*
X13136985Y-13115695D02*
X13106985Y-13145695D01*
X13121985Y-13253195D02*
X13151985Y-13283195D01*
X13151985Y-13253195D02*
X13121985Y-13283195D01*
X13716985Y-13043195D02*
X13746985Y-13073195D01*
X13746985Y-13043195D02*
X13716985Y-13073195D01*
X13919485Y-4218195D02*
X13949485Y-4248195D01*
X13949485Y-4218195D02*
X13919485Y-4248195D01*
X14059485Y-4153195D02*
X14089485Y-4183195D01*
X14089485Y-4153195D02*
X14059485Y-4183195D01*
X14221985Y-4278195D02*
X14251985Y-4308195D01*
X14251985Y-4278195D02*
X14221985Y-4308195D01*
X14314485Y-12895695D02*
X14344485Y-12925695D01*
X14344485Y-12895695D02*
X14314485Y-12925695D01*
X14539485Y-9003195D02*
X14569485Y-9033195D01*
X14569485Y-9003195D02*
X14539485Y-9033195D01*
X14751985Y-8975695D02*
X14781985Y-9005695D01*
X14781985Y-8975695D02*
X14751985Y-9005695D01*
X14811985Y-8838195D02*
X14841985Y-8868195D01*
X14841985Y-8838195D02*
X14811985Y-8868195D01*
X14866985Y-14108195D02*
X14896985Y-14138195D01*
X14896985Y-14108195D02*
X14866985Y-14138195D01*
X14941985Y-13983195D02*
X14971985Y-14013195D01*
X14971985Y-13983195D02*
X14941985Y-14013195D01*
X15079485Y-14105695D02*
X15109485Y-14135695D01*
X15109485Y-14105695D02*
X15079485Y-14135695D01*
X15529485Y-5000695D02*
X15559485Y-5030695D01*
X15559485Y-5000695D02*
X15529485Y-5030695D01*
X15666985Y-5058195D02*
X15696985Y-5088195D01*
X15696985Y-5058195D02*
X15666985Y-5088195D01*
X15776985Y-13033195D02*
X15806985Y-13063195D01*
X15806985Y-13033195D02*
X15776985Y-13063195D01*
X15801985Y-5198195D02*
X15831985Y-5228195D01*
X15831985Y-5198195D02*
X15801985Y-5228195D01*
X15996985Y-6808195D02*
X16026985Y-6838195D01*
X16026985Y-6808195D02*
X15996985Y-6838195D01*
X16114485Y-6655695D02*
X16144485Y-6685695D01*
X16144485Y-6655695D02*
X16114485Y-6685695D01*
X16366985Y-13180695D02*
X16396985Y-13210695D01*
X16396985Y-13180695D02*
X16366985Y-13210695D01*
X17091986Y-10880695D02*
X17121986Y-10910695D01*
X17121986Y-10880695D02*
X17091986Y-10910695D01*
X17199486Y-13083195D02*
X17229486Y-13113195D01*
X17229486Y-13083195D02*
X17199486Y-13113195D01*
X17234486Y-10858195D02*
X17264486Y-10888195D01*
X17264486Y-10858195D02*
X17234486Y-10888195D01*
X17256986Y-12958195D02*
X17286986Y-12988195D01*
X17286986Y-12958195D02*
X17256986Y-12988195D01*
X17891986Y-6368195D02*
X17921986Y-6398195D01*
X17921986Y-6368195D02*
X17891986Y-6398195D01*
X17936986Y-10878195D02*
X17966986Y-10908195D01*
X17966986Y-10878195D02*
X17936986Y-10908195D01*
X18134486Y-10895695D02*
X18164486Y-10925695D01*
X18164486Y-10895695D02*
X18134486Y-10925695D01*
X18194486Y-13268195D02*
X18224486Y-13298195D01*
X18224486Y-13268195D02*
X18194486Y-13298195D01*
X18264486Y-8438195D02*
X18294486Y-8468195D01*
X18294486Y-8438195D02*
X18264486Y-8468195D01*
X18276986Y-10890695D02*
X18306986Y-10920695D01*
X18306986Y-10890695D02*
X18276986Y-10920695D01*
X18329486Y-13103195D02*
X18359486Y-13133195D01*
X18359486Y-13103195D02*
X18329486Y-13133195D01*
X18471986Y-8465695D02*
X18501986Y-8495695D01*
X18501986Y-8465695D02*
X18471986Y-8495695D01*
X18831986Y-7470695D02*
X18861986Y-7500695D01*
X18861986Y-7470695D02*
X18831986Y-7500695D01*
X18851986Y-12165695D02*
X18881986Y-12195695D01*
X18881986Y-12165695D02*
X18851986Y-12195695D01*
X18861986Y-4418195D02*
X18891986Y-4448195D01*
X18891986Y-4418195D02*
X18861986Y-4448195D01*
X18971986Y-5403195D02*
X19001986Y-5433195D01*
X19001986Y-5403195D02*
X18971986Y-5433195D01*
X18999486Y-4508195D02*
X19029486Y-4538195D01*
X19029486Y-4508195D02*
X18999486Y-4538195D01*
X19161986Y-10883195D02*
X19191986Y-10913195D01*
X19191986Y-10883195D02*
X19161986Y-10913195D01*
X19296986Y-10898195D02*
X19326986Y-10928195D01*
X19326986Y-10898195D02*
X19296986Y-10928195D01*
X19436986Y-10863195D02*
X19466986Y-10893195D01*
X19466986Y-10863195D02*
X19436986Y-10893195D01*
X19549486Y-8465695D02*
X19579486Y-8495695D01*
X19579486Y-8465695D02*
X19549486Y-8495695D01*
X19669486Y-8418195D02*
X19699486Y-8448195D01*
X19699486Y-8418195D02*
X19669486Y-8448195D01*
X19866985Y-8360695D02*
X19896985Y-8390695D01*
X19896985Y-8360695D02*
X19866985Y-8390695D01*
X19929486Y-6513195D02*
X19959486Y-6543195D01*
X19959486Y-6513195D02*
X19929486Y-6543195D01*
X20034486Y-10853195D02*
X20064486Y-10883195D01*
X20064486Y-10853195D02*
X20034486Y-10883195D01*
X20159486Y-10890695D02*
X20189486Y-10920695D01*
X20189486Y-10890695D02*
X20159486Y-10920695D01*
X20296986Y-10863195D02*
X20326986Y-10893195D01*
X20326986Y-10863195D02*
X20296986Y-10893195D01*
X2796985Y-9105695D02*
G75*
G02*
X2696986Y-9105695I-50000J0D01*
G01*
X2696986Y-9105695D02*
G75*
G02*
X2796985Y-9105695I50000J0D01*
G01*
X2796985Y-9359695D02*
G75*
G02*
X2696986Y-9359695I-50000J0D01*
G01*
X2696986Y-9359695D02*
G75*
G02*
X2796985Y-9359695I50000J0D01*
G01*
X2796985Y-9613695D02*
G75*
G02*
X2696986Y-9613695I-50000J0D01*
G01*
X2696986Y-9613695D02*
G75*
G02*
X2796985Y-9613695I50000J0D01*
G01*
D11*
X2515262Y-15299678D02*
X2515262Y-15099678D01*
X2515262Y-15099678D02*
X2562881Y-15099678D01*
X2562881Y-15099678D02*
X2591453Y-15109202D01*
X2591453Y-15109202D02*
X2610500Y-15128250D01*
X2610500Y-15128250D02*
X2620024Y-15147297D01*
X2620024Y-15147297D02*
X2629548Y-15185393D01*
X2629548Y-15185393D02*
X2629548Y-15213964D01*
X2629548Y-15213964D02*
X2620024Y-15252059D01*
X2620024Y-15252059D02*
X2610500Y-15271107D01*
X2610500Y-15271107D02*
X2591453Y-15290155D01*
X2591453Y-15290155D02*
X2562881Y-15299678D01*
X2562881Y-15299678D02*
X2515262Y-15299678D01*
X2715262Y-15299678D02*
X2715262Y-15166345D01*
X2715262Y-15204440D02*
X2724786Y-15185393D01*
X2724786Y-15185393D02*
X2734310Y-15175869D01*
X2734310Y-15175869D02*
X2753358Y-15166345D01*
X2753358Y-15166345D02*
X2772405Y-15166345D01*
X2839072Y-15299678D02*
X2839072Y-15166345D01*
X2839072Y-15099678D02*
X2829548Y-15109202D01*
X2829548Y-15109202D02*
X2839072Y-15118726D01*
X2839072Y-15118726D02*
X2848596Y-15109202D01*
X2848596Y-15109202D02*
X2839072Y-15099678D01*
X2839072Y-15099678D02*
X2839072Y-15118726D01*
X2962881Y-15299678D02*
X2943834Y-15290155D01*
X2943834Y-15290155D02*
X2934310Y-15271107D01*
X2934310Y-15271107D02*
X2934310Y-15099678D01*
X3067643Y-15299678D02*
X3048596Y-15290155D01*
X3048596Y-15290155D02*
X3039072Y-15271107D01*
X3039072Y-15271107D02*
X3039072Y-15099678D01*
X3296215Y-15299678D02*
X3296215Y-15099678D01*
X3296215Y-15099678D02*
X3362881Y-15242536D01*
X3362881Y-15242536D02*
X3429548Y-15099678D01*
X3429548Y-15099678D02*
X3429548Y-15299678D01*
X3610500Y-15299678D02*
X3610500Y-15194917D01*
X3610500Y-15194917D02*
X3600977Y-15175869D01*
X3600977Y-15175869D02*
X3581929Y-15166345D01*
X3581929Y-15166345D02*
X3543834Y-15166345D01*
X3543834Y-15166345D02*
X3524786Y-15175869D01*
X3610500Y-15290155D02*
X3591453Y-15299678D01*
X3591453Y-15299678D02*
X3543834Y-15299678D01*
X3543834Y-15299678D02*
X3524786Y-15290155D01*
X3524786Y-15290155D02*
X3515262Y-15271107D01*
X3515262Y-15271107D02*
X3515262Y-15252059D01*
X3515262Y-15252059D02*
X3524786Y-15233012D01*
X3524786Y-15233012D02*
X3543834Y-15223488D01*
X3543834Y-15223488D02*
X3591453Y-15223488D01*
X3591453Y-15223488D02*
X3610500Y-15213964D01*
X3705738Y-15166345D02*
X3705738Y-15366345D01*
X3705738Y-15175869D02*
X3724786Y-15166345D01*
X3724786Y-15166345D02*
X3762881Y-15166345D01*
X3762881Y-15166345D02*
X3781929Y-15175869D01*
X3781929Y-15175869D02*
X3791453Y-15185393D01*
X3791453Y-15185393D02*
X3800977Y-15204440D01*
X3800977Y-15204440D02*
X3800977Y-15261583D01*
X3800977Y-15261583D02*
X3791453Y-15280631D01*
X3791453Y-15280631D02*
X3781929Y-15290155D01*
X3781929Y-15290155D02*
X3762881Y-15299678D01*
X3762881Y-15299678D02*
X3724786Y-15299678D01*
X3724786Y-15299678D02*
X3705738Y-15290155D01*
X3886691Y-15280631D02*
X3896215Y-15290155D01*
X3896215Y-15290155D02*
X3886691Y-15299678D01*
X3886691Y-15299678D02*
X3877167Y-15290155D01*
X3877167Y-15290155D02*
X3886691Y-15280631D01*
X3886691Y-15280631D02*
X3886691Y-15299678D01*
X3886691Y-15175869D02*
X3896215Y-15185393D01*
X3896215Y-15185393D02*
X3886691Y-15194917D01*
X3886691Y-15194917D02*
X3877167Y-15185393D01*
X3877167Y-15185393D02*
X3886691Y-15175869D01*
X3886691Y-15175869D02*
X3886691Y-15194917D01*
D12*
X2224486Y-15613195D02*
X2254486Y-15643195D01*
X2254486Y-15613195D02*
X2224486Y-15643195D01*
D11*
X2553358Y-15519678D02*
X2572405Y-15519678D01*
X2572405Y-15519678D02*
X2591453Y-15529202D01*
X2591453Y-15529202D02*
X2600977Y-15538726D01*
X2600977Y-15538726D02*
X2610500Y-15557774D01*
X2610500Y-15557774D02*
X2620024Y-15595869D01*
X2620024Y-15595869D02*
X2620024Y-15643488D01*
X2620024Y-15643488D02*
X2610500Y-15681583D01*
X2610500Y-15681583D02*
X2600977Y-15700631D01*
X2600977Y-15700631D02*
X2591453Y-15710155D01*
X2591453Y-15710155D02*
X2572405Y-15719678D01*
X2572405Y-15719678D02*
X2553358Y-15719678D01*
X2553358Y-15719678D02*
X2534310Y-15710155D01*
X2534310Y-15710155D02*
X2524786Y-15700631D01*
X2524786Y-15700631D02*
X2515262Y-15681583D01*
X2515262Y-15681583D02*
X2505739Y-15643488D01*
X2505739Y-15643488D02*
X2505739Y-15595869D01*
X2505739Y-15595869D02*
X2515262Y-15557774D01*
X2515262Y-15557774D02*
X2524786Y-15538726D01*
X2524786Y-15538726D02*
X2534310Y-15529202D01*
X2534310Y-15529202D02*
X2553358Y-15519678D01*
X2705739Y-15700631D02*
X2715262Y-15710155D01*
X2715262Y-15710155D02*
X2705739Y-15719678D01*
X2705739Y-15719678D02*
X2696215Y-15710155D01*
X2696215Y-15710155D02*
X2705739Y-15700631D01*
X2705739Y-15700631D02*
X2705739Y-15719678D01*
X2781929Y-15519678D02*
X2905738Y-15519678D01*
X2905738Y-15519678D02*
X2839072Y-15595869D01*
X2839072Y-15595869D02*
X2867643Y-15595869D01*
X2867643Y-15595869D02*
X2886691Y-15605393D01*
X2886691Y-15605393D02*
X2896215Y-15614917D01*
X2896215Y-15614917D02*
X2905738Y-15633964D01*
X2905738Y-15633964D02*
X2905738Y-15681583D01*
X2905738Y-15681583D02*
X2896215Y-15700631D01*
X2896215Y-15700631D02*
X2886691Y-15710155D01*
X2886691Y-15710155D02*
X2867643Y-15719678D01*
X2867643Y-15719678D02*
X2810500Y-15719678D01*
X2810500Y-15719678D02*
X2791453Y-15710155D01*
X2791453Y-15710155D02*
X2781929Y-15700631D01*
X3029548Y-15519678D02*
X3048596Y-15519678D01*
X3048596Y-15519678D02*
X3067643Y-15529202D01*
X3067643Y-15529202D02*
X3077167Y-15538726D01*
X3077167Y-15538726D02*
X3086691Y-15557774D01*
X3086691Y-15557774D02*
X3096215Y-15595869D01*
X3096215Y-15595869D02*
X3096215Y-15643488D01*
X3096215Y-15643488D02*
X3086691Y-15681583D01*
X3086691Y-15681583D02*
X3077167Y-15700631D01*
X3077167Y-15700631D02*
X3067643Y-15710155D01*
X3067643Y-15710155D02*
X3048596Y-15719678D01*
X3048596Y-15719678D02*
X3029548Y-15719678D01*
X3029548Y-15719678D02*
X3010500Y-15710155D01*
X3010500Y-15710155D02*
X3000977Y-15700631D01*
X3000977Y-15700631D02*
X2991453Y-15681583D01*
X2991453Y-15681583D02*
X2981929Y-15643488D01*
X2981929Y-15643488D02*
X2981929Y-15595869D01*
X2981929Y-15595869D02*
X2991453Y-15557774D01*
X2991453Y-15557774D02*
X3000977Y-15538726D01*
X3000977Y-15538726D02*
X3010500Y-15529202D01*
X3010500Y-15529202D02*
X3029548Y-15519678D01*
X3220024Y-15519678D02*
X3239072Y-15519678D01*
X3239072Y-15519678D02*
X3258119Y-15529202D01*
X3258119Y-15529202D02*
X3267643Y-15538726D01*
X3267643Y-15538726D02*
X3277167Y-15557774D01*
X3277167Y-15557774D02*
X3286691Y-15595869D01*
X3286691Y-15595869D02*
X3286691Y-15643488D01*
X3286691Y-15643488D02*
X3277167Y-15681583D01*
X3277167Y-15681583D02*
X3267643Y-15700631D01*
X3267643Y-15700631D02*
X3258119Y-15710155D01*
X3258119Y-15710155D02*
X3239072Y-15719678D01*
X3239072Y-15719678D02*
X3220024Y-15719678D01*
X3220024Y-15719678D02*
X3200977Y-15710155D01*
X3200977Y-15710155D02*
X3191453Y-15700631D01*
X3191453Y-15700631D02*
X3181929Y-15681583D01*
X3181929Y-15681583D02*
X3172405Y-15643488D01*
X3172405Y-15643488D02*
X3172405Y-15595869D01*
X3172405Y-15595869D02*
X3181929Y-15557774D01*
X3181929Y-15557774D02*
X3191453Y-15538726D01*
X3191453Y-15538726D02*
X3200977Y-15529202D01*
X3200977Y-15529202D02*
X3220024Y-15519678D01*
X3372405Y-15719678D02*
X3372405Y-15586345D01*
X3372405Y-15605393D02*
X3381929Y-15595869D01*
X3381929Y-15595869D02*
X3400977Y-15586345D01*
X3400977Y-15586345D02*
X3429548Y-15586345D01*
X3429548Y-15586345D02*
X3448596Y-15595869D01*
X3448596Y-15595869D02*
X3458119Y-15614917D01*
X3458119Y-15614917D02*
X3458119Y-15719678D01*
X3458119Y-15614917D02*
X3467643Y-15595869D01*
X3467643Y-15595869D02*
X3486691Y-15586345D01*
X3486691Y-15586345D02*
X3515262Y-15586345D01*
X3515262Y-15586345D02*
X3534310Y-15595869D01*
X3534310Y-15595869D02*
X3543834Y-15614917D01*
X3543834Y-15614917D02*
X3543834Y-15719678D01*
X3639072Y-15719678D02*
X3639072Y-15586345D01*
X3639072Y-15605393D02*
X3648596Y-15595869D01*
X3648596Y-15595869D02*
X3667643Y-15586345D01*
X3667643Y-15586345D02*
X3696215Y-15586345D01*
X3696215Y-15586345D02*
X3715262Y-15595869D01*
X3715262Y-15595869D02*
X3724786Y-15614917D01*
X3724786Y-15614917D02*
X3724786Y-15719678D01*
X3724786Y-15614917D02*
X3734310Y-15595869D01*
X3734310Y-15595869D02*
X3753358Y-15586345D01*
X3753358Y-15586345D02*
X3781929Y-15586345D01*
X3781929Y-15586345D02*
X3800977Y-15595869D01*
X3800977Y-15595869D02*
X3810500Y-15614917D01*
X3810500Y-15614917D02*
X3810500Y-15719678D01*
X4200977Y-15510155D02*
X4029548Y-15767297D01*
X4458120Y-15519678D02*
X4477167Y-15519678D01*
X4477167Y-15519678D02*
X4496215Y-15529202D01*
X4496215Y-15529202D02*
X4505739Y-15538726D01*
X4505739Y-15538726D02*
X4515263Y-15557774D01*
X4515263Y-15557774D02*
X4524786Y-15595869D01*
X4524786Y-15595869D02*
X4524786Y-15643488D01*
X4524786Y-15643488D02*
X4515263Y-15681583D01*
X4515263Y-15681583D02*
X4505739Y-15700631D01*
X4505739Y-15700631D02*
X4496215Y-15710155D01*
X4496215Y-15710155D02*
X4477167Y-15719678D01*
X4477167Y-15719678D02*
X4458120Y-15719678D01*
X4458120Y-15719678D02*
X4439072Y-15710155D01*
X4439072Y-15710155D02*
X4429548Y-15700631D01*
X4429548Y-15700631D02*
X4420024Y-15681583D01*
X4420024Y-15681583D02*
X4410501Y-15643488D01*
X4410501Y-15643488D02*
X4410501Y-15595869D01*
X4410501Y-15595869D02*
X4420024Y-15557774D01*
X4420024Y-15557774D02*
X4429548Y-15538726D01*
X4429548Y-15538726D02*
X4439072Y-15529202D01*
X4439072Y-15529202D02*
X4458120Y-15519678D01*
X4610501Y-15700631D02*
X4620024Y-15710155D01*
X4620024Y-15710155D02*
X4610501Y-15719678D01*
X4610501Y-15719678D02*
X4600977Y-15710155D01*
X4600977Y-15710155D02*
X4610501Y-15700631D01*
X4610501Y-15700631D02*
X4610501Y-15719678D01*
X4743834Y-15519678D02*
X4762882Y-15519678D01*
X4762882Y-15519678D02*
X4781929Y-15529202D01*
X4781929Y-15529202D02*
X4791453Y-15538726D01*
X4791453Y-15538726D02*
X4800977Y-15557774D01*
X4800977Y-15557774D02*
X4810501Y-15595869D01*
X4810501Y-15595869D02*
X4810501Y-15643488D01*
X4810501Y-15643488D02*
X4800977Y-15681583D01*
X4800977Y-15681583D02*
X4791453Y-15700631D01*
X4791453Y-15700631D02*
X4781929Y-15710155D01*
X4781929Y-15710155D02*
X4762882Y-15719678D01*
X4762882Y-15719678D02*
X4743834Y-15719678D01*
X4743834Y-15719678D02*
X4724786Y-15710155D01*
X4724786Y-15710155D02*
X4715263Y-15700631D01*
X4715263Y-15700631D02*
X4705739Y-15681583D01*
X4705739Y-15681583D02*
X4696215Y-15643488D01*
X4696215Y-15643488D02*
X4696215Y-15595869D01*
X4696215Y-15595869D02*
X4705739Y-15557774D01*
X4705739Y-15557774D02*
X4715263Y-15538726D01*
X4715263Y-15538726D02*
X4724786Y-15529202D01*
X4724786Y-15529202D02*
X4743834Y-15519678D01*
X5000977Y-15719678D02*
X4886691Y-15719678D01*
X4943834Y-15719678D02*
X4943834Y-15519678D01*
X4943834Y-15519678D02*
X4924786Y-15548250D01*
X4924786Y-15548250D02*
X4905739Y-15567297D01*
X4905739Y-15567297D02*
X4886691Y-15576821D01*
X5191453Y-15719678D02*
X5077167Y-15719678D01*
X5134310Y-15719678D02*
X5134310Y-15519678D01*
X5134310Y-15519678D02*
X5115263Y-15548250D01*
X5115263Y-15548250D02*
X5096215Y-15567297D01*
X5096215Y-15567297D02*
X5077167Y-15576821D01*
X5305739Y-15605393D02*
X5286691Y-15595869D01*
X5286691Y-15595869D02*
X5277167Y-15586345D01*
X5277167Y-15586345D02*
X5267644Y-15567297D01*
X5267644Y-15567297D02*
X5267644Y-15557774D01*
X5267644Y-15557774D02*
X5277167Y-15538726D01*
X5277167Y-15538726D02*
X5286691Y-15529202D01*
X5286691Y-15529202D02*
X5305739Y-15519678D01*
X5305739Y-15519678D02*
X5343834Y-15519678D01*
X5343834Y-15519678D02*
X5362882Y-15529202D01*
X5362882Y-15529202D02*
X5372405Y-15538726D01*
X5372405Y-15538726D02*
X5381929Y-15557774D01*
X5381929Y-15557774D02*
X5381929Y-15567297D01*
X5381929Y-15567297D02*
X5372405Y-15586345D01*
X5372405Y-15586345D02*
X5362882Y-15595869D01*
X5362882Y-15595869D02*
X5343834Y-15605393D01*
X5343834Y-15605393D02*
X5305739Y-15605393D01*
X5305739Y-15605393D02*
X5286691Y-15614917D01*
X5286691Y-15614917D02*
X5277167Y-15624440D01*
X5277167Y-15624440D02*
X5267644Y-15643488D01*
X5267644Y-15643488D02*
X5267644Y-15681583D01*
X5267644Y-15681583D02*
X5277167Y-15700631D01*
X5277167Y-15700631D02*
X5286691Y-15710155D01*
X5286691Y-15710155D02*
X5305739Y-15719678D01*
X5305739Y-15719678D02*
X5343834Y-15719678D01*
X5343834Y-15719678D02*
X5362882Y-15710155D01*
X5362882Y-15710155D02*
X5372405Y-15700631D01*
X5372405Y-15700631D02*
X5381929Y-15681583D01*
X5381929Y-15681583D02*
X5381929Y-15643488D01*
X5381929Y-15643488D02*
X5372405Y-15624440D01*
X5372405Y-15624440D02*
X5362882Y-15614917D01*
X5362882Y-15614917D02*
X5343834Y-15605393D01*
X5458120Y-15519678D02*
X5458120Y-15557774D01*
X5534310Y-15519678D02*
X5534310Y-15557774D01*
X5829548Y-15795869D02*
X5820024Y-15786345D01*
X5820024Y-15786345D02*
X5800977Y-15757774D01*
X5800977Y-15757774D02*
X5791453Y-15738726D01*
X5791453Y-15738726D02*
X5781929Y-15710155D01*
X5781929Y-15710155D02*
X5772405Y-15662536D01*
X5772405Y-15662536D02*
X5772405Y-15624440D01*
X5772405Y-15624440D02*
X5781929Y-15576821D01*
X5781929Y-15576821D02*
X5791453Y-15548250D01*
X5791453Y-15548250D02*
X5800977Y-15529202D01*
X5800977Y-15529202D02*
X5820024Y-15500631D01*
X5820024Y-15500631D02*
X5829548Y-15491107D01*
X6010501Y-15719678D02*
X5896215Y-15719678D01*
X5953358Y-15719678D02*
X5953358Y-15519678D01*
X5953358Y-15519678D02*
X5934310Y-15548250D01*
X5934310Y-15548250D02*
X5915263Y-15567297D01*
X5915263Y-15567297D02*
X5896215Y-15576821D01*
X6200977Y-15719678D02*
X6086691Y-15719678D01*
X6143834Y-15719678D02*
X6143834Y-15519678D01*
X6143834Y-15519678D02*
X6124786Y-15548250D01*
X6124786Y-15548250D02*
X6105739Y-15567297D01*
X6105739Y-15567297D02*
X6086691Y-15576821D01*
X6296215Y-15719678D02*
X6334310Y-15719678D01*
X6334310Y-15719678D02*
X6353358Y-15710155D01*
X6353358Y-15710155D02*
X6362882Y-15700631D01*
X6362882Y-15700631D02*
X6381929Y-15672059D01*
X6381929Y-15672059D02*
X6391453Y-15633964D01*
X6391453Y-15633964D02*
X6391453Y-15557774D01*
X6391453Y-15557774D02*
X6381929Y-15538726D01*
X6381929Y-15538726D02*
X6372405Y-15529202D01*
X6372405Y-15529202D02*
X6353358Y-15519678D01*
X6353358Y-15519678D02*
X6315263Y-15519678D01*
X6315263Y-15519678D02*
X6296215Y-15529202D01*
X6296215Y-15529202D02*
X6286691Y-15538726D01*
X6286691Y-15538726D02*
X6277167Y-15557774D01*
X6277167Y-15557774D02*
X6277167Y-15605393D01*
X6277167Y-15605393D02*
X6286691Y-15624440D01*
X6286691Y-15624440D02*
X6296215Y-15633964D01*
X6296215Y-15633964D02*
X6315263Y-15643488D01*
X6315263Y-15643488D02*
X6353358Y-15643488D01*
X6353358Y-15643488D02*
X6372405Y-15633964D01*
X6372405Y-15633964D02*
X6381929Y-15624440D01*
X6381929Y-15624440D02*
X6391453Y-15605393D01*
X6629548Y-15719678D02*
X6629548Y-15519678D01*
X6715263Y-15719678D02*
X6715263Y-15614917D01*
X6715263Y-15614917D02*
X6705739Y-15595869D01*
X6705739Y-15595869D02*
X6686691Y-15586345D01*
X6686691Y-15586345D02*
X6658120Y-15586345D01*
X6658120Y-15586345D02*
X6639072Y-15595869D01*
X6639072Y-15595869D02*
X6629548Y-15605393D01*
X6839072Y-15719678D02*
X6820025Y-15710155D01*
X6820025Y-15710155D02*
X6810501Y-15700631D01*
X6810501Y-15700631D02*
X6800977Y-15681583D01*
X6800977Y-15681583D02*
X6800977Y-15624440D01*
X6800977Y-15624440D02*
X6810501Y-15605393D01*
X6810501Y-15605393D02*
X6820025Y-15595869D01*
X6820025Y-15595869D02*
X6839072Y-15586345D01*
X6839072Y-15586345D02*
X6867644Y-15586345D01*
X6867644Y-15586345D02*
X6886691Y-15595869D01*
X6886691Y-15595869D02*
X6896215Y-15605393D01*
X6896215Y-15605393D02*
X6905739Y-15624440D01*
X6905739Y-15624440D02*
X6905739Y-15681583D01*
X6905739Y-15681583D02*
X6896215Y-15700631D01*
X6896215Y-15700631D02*
X6886691Y-15710155D01*
X6886691Y-15710155D02*
X6867644Y-15719678D01*
X6867644Y-15719678D02*
X6839072Y-15719678D01*
X7020025Y-15719678D02*
X7000977Y-15710155D01*
X7000977Y-15710155D02*
X6991453Y-15691107D01*
X6991453Y-15691107D02*
X6991453Y-15519678D01*
X7172406Y-15710155D02*
X7153358Y-15719678D01*
X7153358Y-15719678D02*
X7115263Y-15719678D01*
X7115263Y-15719678D02*
X7096215Y-15710155D01*
X7096215Y-15710155D02*
X7086691Y-15691107D01*
X7086691Y-15691107D02*
X7086691Y-15614917D01*
X7086691Y-15614917D02*
X7096215Y-15595869D01*
X7096215Y-15595869D02*
X7115263Y-15586345D01*
X7115263Y-15586345D02*
X7153358Y-15586345D01*
X7153358Y-15586345D02*
X7172406Y-15595869D01*
X7172406Y-15595869D02*
X7181929Y-15614917D01*
X7181929Y-15614917D02*
X7181929Y-15633964D01*
X7181929Y-15633964D02*
X7086691Y-15653012D01*
X7258120Y-15710155D02*
X7277167Y-15719678D01*
X7277167Y-15719678D02*
X7315263Y-15719678D01*
X7315263Y-15719678D02*
X7334310Y-15710155D01*
X7334310Y-15710155D02*
X7343834Y-15691107D01*
X7343834Y-15691107D02*
X7343834Y-15681583D01*
X7343834Y-15681583D02*
X7334310Y-15662536D01*
X7334310Y-15662536D02*
X7315263Y-15653012D01*
X7315263Y-15653012D02*
X7286691Y-15653012D01*
X7286691Y-15653012D02*
X7267644Y-15643488D01*
X7267644Y-15643488D02*
X7258120Y-15624440D01*
X7258120Y-15624440D02*
X7258120Y-15614917D01*
X7258120Y-15614917D02*
X7267644Y-15595869D01*
X7267644Y-15595869D02*
X7286691Y-15586345D01*
X7286691Y-15586345D02*
X7315263Y-15586345D01*
X7315263Y-15586345D02*
X7334310Y-15595869D01*
X7410501Y-15795869D02*
X7420025Y-15786345D01*
X7420025Y-15786345D02*
X7439072Y-15757774D01*
X7439072Y-15757774D02*
X7448596Y-15738726D01*
X7448596Y-15738726D02*
X7458120Y-15710155D01*
X7458120Y-15710155D02*
X7467644Y-15662536D01*
X7467644Y-15662536D02*
X7467644Y-15624440D01*
X7467644Y-15624440D02*
X7458120Y-15576821D01*
X7458120Y-15576821D02*
X7448596Y-15548250D01*
X7448596Y-15548250D02*
X7439072Y-15529202D01*
X7439072Y-15529202D02*
X7420025Y-15500631D01*
X7420025Y-15500631D02*
X7410501Y-15491107D01*
D12*
X2254486Y-15892195D02*
G75*
G02*
X2154486Y-15892195I-50000J0D01*
G01*
X2154486Y-15892195D02*
G75*
G02*
X2254486Y-15892195I50000J0D01*
G01*
D11*
X2620024Y-15983678D02*
X2505739Y-15983678D01*
X2562881Y-15983678D02*
X2562881Y-15783678D01*
X2562881Y-15783678D02*
X2543834Y-15812250D01*
X2543834Y-15812250D02*
X2524786Y-15831297D01*
X2524786Y-15831297D02*
X2505739Y-15840821D01*
X2705739Y-15964631D02*
X2715262Y-15974155D01*
X2715262Y-15974155D02*
X2705739Y-15983678D01*
X2705739Y-15983678D02*
X2696215Y-15974155D01*
X2696215Y-15974155D02*
X2705739Y-15964631D01*
X2705739Y-15964631D02*
X2705739Y-15983678D01*
X2839072Y-15783678D02*
X2858119Y-15783678D01*
X2858119Y-15783678D02*
X2877167Y-15793202D01*
X2877167Y-15793202D02*
X2886691Y-15802726D01*
X2886691Y-15802726D02*
X2896215Y-15821774D01*
X2896215Y-15821774D02*
X2905738Y-15859869D01*
X2905738Y-15859869D02*
X2905738Y-15907488D01*
X2905738Y-15907488D02*
X2896215Y-15945583D01*
X2896215Y-15945583D02*
X2886691Y-15964631D01*
X2886691Y-15964631D02*
X2877167Y-15974155D01*
X2877167Y-15974155D02*
X2858119Y-15983678D01*
X2858119Y-15983678D02*
X2839072Y-15983678D01*
X2839072Y-15983678D02*
X2820024Y-15974155D01*
X2820024Y-15974155D02*
X2810500Y-15964631D01*
X2810500Y-15964631D02*
X2800977Y-15945583D01*
X2800977Y-15945583D02*
X2791453Y-15907488D01*
X2791453Y-15907488D02*
X2791453Y-15859869D01*
X2791453Y-15859869D02*
X2800977Y-15821774D01*
X2800977Y-15821774D02*
X2810500Y-15802726D01*
X2810500Y-15802726D02*
X2820024Y-15793202D01*
X2820024Y-15793202D02*
X2839072Y-15783678D01*
X3029548Y-15783678D02*
X3048596Y-15783678D01*
X3048596Y-15783678D02*
X3067643Y-15793202D01*
X3067643Y-15793202D02*
X3077167Y-15802726D01*
X3077167Y-15802726D02*
X3086691Y-15821774D01*
X3086691Y-15821774D02*
X3096215Y-15859869D01*
X3096215Y-15859869D02*
X3096215Y-15907488D01*
X3096215Y-15907488D02*
X3086691Y-15945583D01*
X3086691Y-15945583D02*
X3077167Y-15964631D01*
X3077167Y-15964631D02*
X3067643Y-15974155D01*
X3067643Y-15974155D02*
X3048596Y-15983678D01*
X3048596Y-15983678D02*
X3029548Y-15983678D01*
X3029548Y-15983678D02*
X3010500Y-15974155D01*
X3010500Y-15974155D02*
X3000977Y-15964631D01*
X3000977Y-15964631D02*
X2991453Y-15945583D01*
X2991453Y-15945583D02*
X2981929Y-15907488D01*
X2981929Y-15907488D02*
X2981929Y-15859869D01*
X2981929Y-15859869D02*
X2991453Y-15821774D01*
X2991453Y-15821774D02*
X3000977Y-15802726D01*
X3000977Y-15802726D02*
X3010500Y-15793202D01*
X3010500Y-15793202D02*
X3029548Y-15783678D01*
X3220024Y-15783678D02*
X3239072Y-15783678D01*
X3239072Y-15783678D02*
X3258119Y-15793202D01*
X3258119Y-15793202D02*
X3267643Y-15802726D01*
X3267643Y-15802726D02*
X3277167Y-15821774D01*
X3277167Y-15821774D02*
X3286691Y-15859869D01*
X3286691Y-15859869D02*
X3286691Y-15907488D01*
X3286691Y-15907488D02*
X3277167Y-15945583D01*
X3277167Y-15945583D02*
X3267643Y-15964631D01*
X3267643Y-15964631D02*
X3258119Y-15974155D01*
X3258119Y-15974155D02*
X3239072Y-15983678D01*
X3239072Y-15983678D02*
X3220024Y-15983678D01*
X3220024Y-15983678D02*
X3200977Y-15974155D01*
X3200977Y-15974155D02*
X3191453Y-15964631D01*
X3191453Y-15964631D02*
X3181929Y-15945583D01*
X3181929Y-15945583D02*
X3172405Y-15907488D01*
X3172405Y-15907488D02*
X3172405Y-15859869D01*
X3172405Y-15859869D02*
X3181929Y-15821774D01*
X3181929Y-15821774D02*
X3191453Y-15802726D01*
X3191453Y-15802726D02*
X3200977Y-15793202D01*
X3200977Y-15793202D02*
X3220024Y-15783678D01*
X3372405Y-15983678D02*
X3372405Y-15850345D01*
X3372405Y-15869393D02*
X3381929Y-15859869D01*
X3381929Y-15859869D02*
X3400977Y-15850345D01*
X3400977Y-15850345D02*
X3429548Y-15850345D01*
X3429548Y-15850345D02*
X3448596Y-15859869D01*
X3448596Y-15859869D02*
X3458119Y-15878917D01*
X3458119Y-15878917D02*
X3458119Y-15983678D01*
X3458119Y-15878917D02*
X3467643Y-15859869D01*
X3467643Y-15859869D02*
X3486691Y-15850345D01*
X3486691Y-15850345D02*
X3515262Y-15850345D01*
X3515262Y-15850345D02*
X3534310Y-15859869D01*
X3534310Y-15859869D02*
X3543834Y-15878917D01*
X3543834Y-15878917D02*
X3543834Y-15983678D01*
X3639072Y-15983678D02*
X3639072Y-15850345D01*
X3639072Y-15869393D02*
X3648596Y-15859869D01*
X3648596Y-15859869D02*
X3667643Y-15850345D01*
X3667643Y-15850345D02*
X3696215Y-15850345D01*
X3696215Y-15850345D02*
X3715262Y-15859869D01*
X3715262Y-15859869D02*
X3724786Y-15878917D01*
X3724786Y-15878917D02*
X3724786Y-15983678D01*
X3724786Y-15878917D02*
X3734310Y-15859869D01*
X3734310Y-15859869D02*
X3753358Y-15850345D01*
X3753358Y-15850345D02*
X3781929Y-15850345D01*
X3781929Y-15850345D02*
X3800977Y-15859869D01*
X3800977Y-15859869D02*
X3810500Y-15878917D01*
X3810500Y-15878917D02*
X3810500Y-15983678D01*
X4200977Y-15774155D02*
X4029548Y-16031297D01*
X4458120Y-15783678D02*
X4477167Y-15783678D01*
X4477167Y-15783678D02*
X4496215Y-15793202D01*
X4496215Y-15793202D02*
X4505739Y-15802726D01*
X4505739Y-15802726D02*
X4515263Y-15821774D01*
X4515263Y-15821774D02*
X4524786Y-15859869D01*
X4524786Y-15859869D02*
X4524786Y-15907488D01*
X4524786Y-15907488D02*
X4515263Y-15945583D01*
X4515263Y-15945583D02*
X4505739Y-15964631D01*
X4505739Y-15964631D02*
X4496215Y-15974155D01*
X4496215Y-15974155D02*
X4477167Y-15983678D01*
X4477167Y-15983678D02*
X4458120Y-15983678D01*
X4458120Y-15983678D02*
X4439072Y-15974155D01*
X4439072Y-15974155D02*
X4429548Y-15964631D01*
X4429548Y-15964631D02*
X4420024Y-15945583D01*
X4420024Y-15945583D02*
X4410501Y-15907488D01*
X4410501Y-15907488D02*
X4410501Y-15859869D01*
X4410501Y-15859869D02*
X4420024Y-15821774D01*
X4420024Y-15821774D02*
X4429548Y-15802726D01*
X4429548Y-15802726D02*
X4439072Y-15793202D01*
X4439072Y-15793202D02*
X4458120Y-15783678D01*
X4610501Y-15964631D02*
X4620024Y-15974155D01*
X4620024Y-15974155D02*
X4610501Y-15983678D01*
X4610501Y-15983678D02*
X4600977Y-15974155D01*
X4600977Y-15974155D02*
X4610501Y-15964631D01*
X4610501Y-15964631D02*
X4610501Y-15983678D01*
X4743834Y-15783678D02*
X4762882Y-15783678D01*
X4762882Y-15783678D02*
X4781929Y-15793202D01*
X4781929Y-15793202D02*
X4791453Y-15802726D01*
X4791453Y-15802726D02*
X4800977Y-15821774D01*
X4800977Y-15821774D02*
X4810501Y-15859869D01*
X4810501Y-15859869D02*
X4810501Y-15907488D01*
X4810501Y-15907488D02*
X4800977Y-15945583D01*
X4800977Y-15945583D02*
X4791453Y-15964631D01*
X4791453Y-15964631D02*
X4781929Y-15974155D01*
X4781929Y-15974155D02*
X4762882Y-15983678D01*
X4762882Y-15983678D02*
X4743834Y-15983678D01*
X4743834Y-15983678D02*
X4724786Y-15974155D01*
X4724786Y-15974155D02*
X4715263Y-15964631D01*
X4715263Y-15964631D02*
X4705739Y-15945583D01*
X4705739Y-15945583D02*
X4696215Y-15907488D01*
X4696215Y-15907488D02*
X4696215Y-15859869D01*
X4696215Y-15859869D02*
X4705739Y-15821774D01*
X4705739Y-15821774D02*
X4715263Y-15802726D01*
X4715263Y-15802726D02*
X4724786Y-15793202D01*
X4724786Y-15793202D02*
X4743834Y-15783678D01*
X4877167Y-15783678D02*
X5000977Y-15783678D01*
X5000977Y-15783678D02*
X4934310Y-15859869D01*
X4934310Y-15859869D02*
X4962882Y-15859869D01*
X4962882Y-15859869D02*
X4981929Y-15869393D01*
X4981929Y-15869393D02*
X4991453Y-15878917D01*
X4991453Y-15878917D02*
X5000977Y-15897964D01*
X5000977Y-15897964D02*
X5000977Y-15945583D01*
X5000977Y-15945583D02*
X4991453Y-15964631D01*
X4991453Y-15964631D02*
X4981929Y-15974155D01*
X4981929Y-15974155D02*
X4962882Y-15983678D01*
X4962882Y-15983678D02*
X4905739Y-15983678D01*
X4905739Y-15983678D02*
X4886691Y-15974155D01*
X4886691Y-15974155D02*
X4877167Y-15964631D01*
X5096215Y-15983678D02*
X5134310Y-15983678D01*
X5134310Y-15983678D02*
X5153358Y-15974155D01*
X5153358Y-15974155D02*
X5162882Y-15964631D01*
X5162882Y-15964631D02*
X5181929Y-15936059D01*
X5181929Y-15936059D02*
X5191453Y-15897964D01*
X5191453Y-15897964D02*
X5191453Y-15821774D01*
X5191453Y-15821774D02*
X5181929Y-15802726D01*
X5181929Y-15802726D02*
X5172405Y-15793202D01*
X5172405Y-15793202D02*
X5153358Y-15783678D01*
X5153358Y-15783678D02*
X5115263Y-15783678D01*
X5115263Y-15783678D02*
X5096215Y-15793202D01*
X5096215Y-15793202D02*
X5086691Y-15802726D01*
X5086691Y-15802726D02*
X5077167Y-15821774D01*
X5077167Y-15821774D02*
X5077167Y-15869393D01*
X5077167Y-15869393D02*
X5086691Y-15888440D01*
X5086691Y-15888440D02*
X5096215Y-15897964D01*
X5096215Y-15897964D02*
X5115263Y-15907488D01*
X5115263Y-15907488D02*
X5153358Y-15907488D01*
X5153358Y-15907488D02*
X5172405Y-15897964D01*
X5172405Y-15897964D02*
X5181929Y-15888440D01*
X5181929Y-15888440D02*
X5191453Y-15869393D01*
X5362882Y-15850345D02*
X5362882Y-15983678D01*
X5315263Y-15774155D02*
X5267644Y-15917012D01*
X5267644Y-15917012D02*
X5391453Y-15917012D01*
X5458120Y-15783678D02*
X5458120Y-15821774D01*
X5534310Y-15783678D02*
X5534310Y-15821774D01*
X5829548Y-16059869D02*
X5820024Y-16050345D01*
X5820024Y-16050345D02*
X5800977Y-16021774D01*
X5800977Y-16021774D02*
X5791453Y-16002726D01*
X5791453Y-16002726D02*
X5781929Y-15974155D01*
X5781929Y-15974155D02*
X5772405Y-15926536D01*
X5772405Y-15926536D02*
X5772405Y-15888440D01*
X5772405Y-15888440D02*
X5781929Y-15840821D01*
X5781929Y-15840821D02*
X5791453Y-15812250D01*
X5791453Y-15812250D02*
X5800977Y-15793202D01*
X5800977Y-15793202D02*
X5820024Y-15764631D01*
X5820024Y-15764631D02*
X5829548Y-15755107D01*
X5886691Y-15783678D02*
X6010501Y-15783678D01*
X6010501Y-15783678D02*
X5943834Y-15859869D01*
X5943834Y-15859869D02*
X5972405Y-15859869D01*
X5972405Y-15859869D02*
X5991453Y-15869393D01*
X5991453Y-15869393D02*
X6000977Y-15878917D01*
X6000977Y-15878917D02*
X6010501Y-15897964D01*
X6010501Y-15897964D02*
X6010501Y-15945583D01*
X6010501Y-15945583D02*
X6000977Y-15964631D01*
X6000977Y-15964631D02*
X5991453Y-15974155D01*
X5991453Y-15974155D02*
X5972405Y-15983678D01*
X5972405Y-15983678D02*
X5915263Y-15983678D01*
X5915263Y-15983678D02*
X5896215Y-15974155D01*
X5896215Y-15974155D02*
X5886691Y-15964631D01*
X6248596Y-15983678D02*
X6248596Y-15783678D01*
X6334310Y-15983678D02*
X6334310Y-15878917D01*
X6334310Y-15878917D02*
X6324786Y-15859869D01*
X6324786Y-15859869D02*
X6305739Y-15850345D01*
X6305739Y-15850345D02*
X6277167Y-15850345D01*
X6277167Y-15850345D02*
X6258120Y-15859869D01*
X6258120Y-15859869D02*
X6248596Y-15869393D01*
X6458120Y-15983678D02*
X6439072Y-15974155D01*
X6439072Y-15974155D02*
X6429548Y-15964631D01*
X6429548Y-15964631D02*
X6420025Y-15945583D01*
X6420025Y-15945583D02*
X6420025Y-15888440D01*
X6420025Y-15888440D02*
X6429548Y-15869393D01*
X6429548Y-15869393D02*
X6439072Y-15859869D01*
X6439072Y-15859869D02*
X6458120Y-15850345D01*
X6458120Y-15850345D02*
X6486691Y-15850345D01*
X6486691Y-15850345D02*
X6505739Y-15859869D01*
X6505739Y-15859869D02*
X6515263Y-15869393D01*
X6515263Y-15869393D02*
X6524786Y-15888440D01*
X6524786Y-15888440D02*
X6524786Y-15945583D01*
X6524786Y-15945583D02*
X6515263Y-15964631D01*
X6515263Y-15964631D02*
X6505739Y-15974155D01*
X6505739Y-15974155D02*
X6486691Y-15983678D01*
X6486691Y-15983678D02*
X6458120Y-15983678D01*
X6639072Y-15983678D02*
X6620025Y-15974155D01*
X6620025Y-15974155D02*
X6610501Y-15955107D01*
X6610501Y-15955107D02*
X6610501Y-15783678D01*
X6791453Y-15974155D02*
X6772406Y-15983678D01*
X6772406Y-15983678D02*
X6734310Y-15983678D01*
X6734310Y-15983678D02*
X6715263Y-15974155D01*
X6715263Y-15974155D02*
X6705739Y-15955107D01*
X6705739Y-15955107D02*
X6705739Y-15878917D01*
X6705739Y-15878917D02*
X6715263Y-15859869D01*
X6715263Y-15859869D02*
X6734310Y-15850345D01*
X6734310Y-15850345D02*
X6772406Y-15850345D01*
X6772406Y-15850345D02*
X6791453Y-15859869D01*
X6791453Y-15859869D02*
X6800977Y-15878917D01*
X6800977Y-15878917D02*
X6800977Y-15897964D01*
X6800977Y-15897964D02*
X6705739Y-15917012D01*
X6877167Y-15974155D02*
X6896215Y-15983678D01*
X6896215Y-15983678D02*
X6934310Y-15983678D01*
X6934310Y-15983678D02*
X6953358Y-15974155D01*
X6953358Y-15974155D02*
X6962882Y-15955107D01*
X6962882Y-15955107D02*
X6962882Y-15945583D01*
X6962882Y-15945583D02*
X6953358Y-15926536D01*
X6953358Y-15926536D02*
X6934310Y-15917012D01*
X6934310Y-15917012D02*
X6905739Y-15917012D01*
X6905739Y-15917012D02*
X6886691Y-15907488D01*
X6886691Y-15907488D02*
X6877167Y-15888440D01*
X6877167Y-15888440D02*
X6877167Y-15878917D01*
X6877167Y-15878917D02*
X6886691Y-15859869D01*
X6886691Y-15859869D02*
X6905739Y-15850345D01*
X6905739Y-15850345D02*
X6934310Y-15850345D01*
X6934310Y-15850345D02*
X6953358Y-15859869D01*
X7029548Y-16059869D02*
X7039072Y-16050345D01*
X7039072Y-16050345D02*
X7058120Y-16021774D01*
X7058120Y-16021774D02*
X7067644Y-16002726D01*
X7067644Y-16002726D02*
X7077167Y-15974155D01*
X7077167Y-15974155D02*
X7086691Y-15926536D01*
X7086691Y-15926536D02*
X7086691Y-15888440D01*
X7086691Y-15888440D02*
X7077167Y-15840821D01*
X7077167Y-15840821D02*
X7067644Y-15812250D01*
X7067644Y-15812250D02*
X7058120Y-15793202D01*
X7058120Y-15793202D02*
X7039072Y-15764631D01*
X7039072Y-15764631D02*
X7029548Y-15755107D01*
M02*
