M48
; DRILL file {KiCad 9.0.0} date 2025-03-31T16:50:09-0700
; FORMAT={-:-/ absolute / metric / decimal}
; #@! TF.CreationDate,2025-03-31T16:50:09-07:00
; #@! TF.GenerationSoftware,Kicad,Pcbnew,9.0.0
; #@! TF.FileFunction,Plated,1,2,PTH
FMAT,2
METRIC
; #@! TA.AperFunction,Plated,PTH,ViaDrill
T1C0.300
; #@! TA.AperFunction,Plated,PTH,ComponentDrill
T2C1.000
%
G90
G05
T1
X31.795Y-111.057
X37.895Y-127.257
X39.195Y-76.507
X39.57Y-77.882
X40.445Y-75.032
X40.47Y-101.107
X40.47Y-108.957
X40.47Y-115.457
X43.345Y-92.082
X43.745Y-133.707
X44.195Y-51.482
X44.92Y-90.707
X44.995Y-52.882
X45.42Y-53.632
X45.72Y-108.307
X47.52Y-57.932
X47.695Y-134.182
X47.695Y-141.007
X47.895Y-47.032
X48.295Y-126.132
X48.87Y-57.507
X49.245Y-114.532
X49.42Y-48.182
X49.645Y-56.657
X50.795Y-47.882
X53.095Y-52.132
X53.695Y-52.982
X53.795Y-72.832
X53.845Y-54.332
X55.22Y-72.457
X55.97Y-71.632
X74.77Y-115.257
X75.53Y-63.569
X75.995Y-64.957
X76.345Y-107.707
X76.345Y-116.382
X76.82Y-62.157
X77.695Y-107.407
X78.47Y-106.557
X82.495Y-49.307
X82.62Y-83.832
X83.13Y-47.932
X83.199Y-85.908
X84.32Y-86.757
X85.095Y-47.732
X96.745Y-41.882
X98.138Y-41.489
X99.645Y-42.707
X102.845Y-128.632
X103.595Y-130.057
X104.22Y-99.332
X104.965Y-101.528
X106.17Y-102.307
X107.745Y-143.982
X109.295Y-145.182
X110.695Y-146.757
X112.195Y-135.307
X112.495Y-144.782
X112.97Y-119.432
X113.845Y-117.332
X115.695Y-113.807
X117.445Y-56.582
X117.545Y-115.107
X118.87Y-56.607
X118.97Y-115.807
X119.595Y-55.682
X122.995Y-121.857
X124.495Y-121.257
X126.27Y-122.157
X127.27Y-103.732
X129.17Y-103.232
X129.97Y-102.007
X131.22Y-131.307
X131.37Y-132.682
X137.32Y-130.582
X139.345Y-42.332
X140.745Y-41.682
X142.37Y-42.932
X143.295Y-129.107
X145.545Y-90.182
X147.67Y-89.907
X148.27Y-88.532
X148.82Y-141.232
X149.57Y-139.982
X150.945Y-141.207
X155.445Y-50.157
X156.82Y-50.732
X157.92Y-130.482
X158.17Y-52.132
X160.12Y-68.232
X161.295Y-66.707
X163.82Y-131.957
X171.07Y-108.957
X172.145Y-130.982
X172.495Y-108.732
X172.72Y-129.732
X179.07Y-63.832
X179.52Y-108.932
X181.495Y-109.107
X182.095Y-132.832
X182.795Y-84.532
X182.92Y-109.057
X183.445Y-131.182
X184.87Y-84.807
X188.47Y-74.857
X188.67Y-121.807
X188.77Y-44.332
X189.87Y-54.182
X190.145Y-45.232
X191.77Y-108.982
X193.12Y-109.132
X194.52Y-108.782
X195.645Y-84.807
X196.845Y-84.332
X198.82Y-83.757
X199.445Y-65.282
X200.495Y-108.682
X201.745Y-109.057
X203.12Y-108.782
T2
X27.47Y-91.057
X27.47Y-93.597
X27.47Y-96.137
M30
