M48
; DRILL file {KiCad 9.0.0} date 2025-04-01T19:23:46-0700
; FORMAT={-:-/ absolute / metric / decimal}
; #@! TF.CreationDate,2025-04-01T19:23:46-07:00
; #@! TF.GenerationSoftware,Kicad,Pcbnew,9.0.0
; #@! TF.FileFunction,Plated,1,2,PTH
FMAT,2
METRIC
; #@! TA.AperFunction,Plated,PTH,ViaDrill
T1C0.300
; #@! TA.AperFunction,Plated,PTH,ComponentDrill
T2C1.000
%
G90
G05
T1
X38.425Y-126.175
X39.675Y-80.2
X41.725Y-114.325
X42.6Y-132.65
X46.075Y-91.925
X46.85Y-109.075
X47.5Y-127.225
X48.475Y-115.725
X49.0Y-96.425
X54.25Y-40.562
X55.675Y-70.275
X74.4Y-57.0
X74.475Y-64.775
X76.375Y-106.5
X78.05Y-57.0
X78.225Y-79.85
X79.35Y-117.075
X81.225Y-49.4
X84.775Y-87.825
X89.7Y-96.675
X94.1Y-92.475
X97.05Y-40.475
X100.225Y-96.6
X101.85Y-129.575
X105.425Y-103.1
X106.025Y-144.575
X110.175Y-144.4
X110.325Y-119.475
X112.425Y-46.625
X118.684Y-115.884
X121.45Y-49.25
X122.3Y-120.55
X131.6Y-102.8
X132.8Y-130.05
X135.85Y-97.675
X139.6Y-40.45
X141.675Y-130.875
X147.575Y-44.125
X149.85Y-89.6
X151.15Y-45.075
X152.275Y-140.725
X156.525Y-48.075
X157.425Y-78.275
X157.6Y-128.925
X160.8Y-81.7
X162.575Y-65.525
X171.2Y-130.875
X172.15Y-110.275
X178.25Y-64.925
X180.85Y-83.625
X182.75Y-110.275
X183.675Y-129.025
X187.5Y-54.025
X190.125Y-122.275
X190.825Y-75.6
X190.85Y-44.9
X194.175Y-110.375
X194.875Y-84.575
X199.825Y-62.875
X202.8Y-110.3
T2
X27.47Y-91.057
X27.47Y-93.597
X27.47Y-96.137
M30
